<?xml version="1.0" standalone="no"?>
<!DOCTYPE svg PUBLIC "-//W3C//DTD SVG 20010904//EN"
 "http://www.w3.org/TR/2001/REC-SVG-20010904/DTD/svg10.dtd">
<svg version="1.0" xmlns="http://www.w3.org/2000/svg"
 width="279.000000pt" height="279.000000pt" viewBox="0 0 279.000000 279.000000"
 preserveAspectRatio="xMidYMid meet">

<g transform="translate(0.000000,279.000000) scale(0.100000,-0.100000)"
fill="#000000" stroke="none">
<path d="M1240 2780 c-599 -67 -1088 -514 -1210 -1106 -26 -125 -28 -421 -4
-540 24 -122 52 -211 96 -306 l40 -87 46 67 c25 37 46 69 48 71 6 7 104 -93
104 -106 0 -8 -20 -55 -45 -105 -53 -103 -56 -89 40 -202 42 -49 63 -66 81
-66 22 0 24 3 19 23 -4 12 -20 44 -36 70 -16 27 -29 57 -29 67 0 37 23 69 58
81 29 10 38 9 60 -8 14 -11 27 -32 29 -49 3 -16 13 -38 24 -50 22 -24 24 -49
4 -84 -21 -36 -19 -39 20 -27 25 7 42 7 60 -1 24 -11 29 -9 55 19 28 31 30 31
74 20 40 -10 51 -9 95 11 28 12 47 26 44 31 -4 7 1 7 13 2 39 -18 98 -10 164
21 92 44 105 47 123 29 20 -20 26 -19 61 9 21 17 27 30 23 45 -6 24 -5 24 46
10 21 -5 35 -13 33 -18 -3 -4 4 -12 14 -19 18 -11 19 -9 13 18 -11 55 52 95
79 50 18 -28 27 -25 25 7 -3 36 51 73 105 73 37 0 38 -1 36 -32 -2 -25 1 -32
12 -29 8 3 35 5 60 6 25 1 60 9 78 19 51 27 128 33 151 12 27 -25 35 -64 18
-90 -21 -32 2 -62 44 -58 16 2 36 -2 44 -8 11 -9 19 -3 39 27 31 45 32 50 6
58 -29 9 -42 39 -30 69 12 33 36 45 122 57 235 34 246 36 383 44 59 3 83 9 92
21 52 72 135 430 109 473 -5 7 -3 18 3 24 16 16 14 50 -1 41 -9 -5 -8 -2 1 9
29 37 -10 325 -65 479 -198 549 -690 911 -1271 932 -70 2 -162 1 -203 -4z
m345 -21 c166 -23 285 -80 395 -189 66 -66 150 -205 150 -249 0 -36 -15 -23
-43 38 -63 137 -167 241 -313 313 -69 33 -97 41 -180 49 -55 5 -111 11 -125
12 -49 6 -184 -12 -243 -33 -33 -11 -61 -18 -63 -16 -7 7 121 58 180 71 78 17
144 18 242 4z m-616 -155 c6 -14 11 -27 11 -29 0 -9 -43 -27 -72 -31 -17 -2
-38 -10 -47 -17 -36 -31 -39 -28 -25 18 17 59 21 65 45 65 10 0 19 4 19 9 0
11 29 19 46 14 6 -2 16 -15 23 -29z m-161 -53 c12 -7 11 -14 -3 -40 -9 -18
-22 -34 -30 -37 -8 -3 -17 -14 -20 -25 -4 -11 -11 -17 -16 -13 -5 3 -9 2 -8
-3 3 -19 -14 -53 -27 -53 -17 0 -28 42 -20 75 4 14 20 34 37 44 17 10 37 28
45 40 17 23 22 25 42 12z m-138 -165 c0 -13 -8 -30 -17 -37 -15 -13 -16 -11
-10 11 4 14 7 31 7 38 0 6 5 12 10 12 6 0 10 -11 10 -24z m45 -46 c-7 -8 -30
-50 -51 -94 -37 -78 -37 -78 -51 -52 -15 28 -8 51 21 76 9 7 16 21 16 31 0 26
34 58 59 56 18 -1 18 -3 6 -17z m1581 -59 c-3 -19 -11 -39 -17 -45 -9 -8 -10
-8 -5 1 8 14 -18 69 -34 75 -6 2 -4 13 6 27 l17 24 20 -24 c14 -17 17 -33 13
-58z m132 -1 c9 -16 23 -30 30 -30 7 0 20 -16 29 -35 14 -30 15 -40 3 -77
l-13 -43 -14 55 c-8 30 -15 62 -16 70 0 8 -5 18 -11 22 -19 13 -74 9 -90 -7
-24 -24 -49 -19 -41 8 21 68 93 90 123 37z m-228 -9 c0 -6 -12 -23 -26 -38
-28 -30 -28 -29 10 35 9 14 16 16 16 3z m-1004 -67 c-3 -8 -16 -14 -28 -14
-13 0 -47 -12 -77 -26 l-55 -25 49 43 c27 24 62 53 79 64 l31 22 3 -25 c2 -14
1 -31 -2 -39z m464 -30 c16 -96 17 -94 -33 -76 l-43 16 23 55 c12 31 23 63 23
71 0 34 21 -11 30 -66z m738 17 c-18 -20 -36 -40 -41 -46 -4 -5 -2 6 4 25 15
45 37 70 56 63 11 -4 7 -14 -19 -42z m-48 -3 c0 -7 -5 -20 -10 -28 -8 -12 -10
-12 -10 -1 0 8 -3 11 -7 8 -9 -9 -34 13 -27 24 8 14 54 11 54 -3z m-1156 -85
l7 -63 -33 6 -33 5 38 -17 c20 -9 37 -22 37 -29 0 -11 -5 -11 -27 1 -34 17
-116 18 -146 2 -12 -7 -42 -32 -66 -56 l-44 -43 7 33 c3 18 20 61 37 96 24 50
39 67 72 84 33 17 138 49 143 44 1 -1 4 -29 8 -63z m1254 27 c6 -16 8 -30 4
-30 -4 0 -12 16 -18 35 -13 41 0 37 14 -5z m-653 -65 c30 -64 55 -186 55 -267
0 -65 -8 -108 -19 -108 -6 0 -37 79 -42 105 -1 6 -10 16 -21 24 -11 7 -17 19
-14 27 3 8 -1 14 -9 14 -8 0 -32 9 -52 20 -59 31 -198 23 -178 -11 4 -5 -4
-13 -17 -18 -13 -6 -17 -10 -10 -10 7 -1 11 -5 8 -10 -9 -14 77 -9 100 6 25
16 51 8 59 -18 4 -10 11 -19 16 -19 5 0 9 -4 9 -10 0 -5 -8 -10 -18 -10 -10 0
-23 -5 -29 -11 -15 -15 -53 -1 -53 19 -1 15 -3 14 -15 -2 -16 -21 -20 -93 -7
-113 10 -16 87 -43 123 -43 19 0 36 10 54 33 l27 32 -6 -27 c-7 -32 -5 -33 34
-13 25 13 30 13 30 2 0 -26 -77 -133 -126 -175 -51 -44 -51 -55 1 -24 88 53
78 16 -12 -44 -32 -21 -60 -40 -62 -41 -2 -2 -2 -6 2 -9 3 -3 27 1 53 10 63
21 74 20 44 -5 l-25 -21 30 6 c28 6 26 3 -30 -51 -73 -69 -164 -113 -295 -142
-171 -37 -194 -38 -237 -5 -101 77 -225 231 -248 307 -8 28 -15 71 -15 95 l0
44 25 -16 c27 -17 33 -10 13 14 -10 11 -8 11 7 -1 17 -13 51 -31 90 -47 6 -3
-5 8 -22 24 -18 16 -48 55 -66 86 -33 54 -34 60 -29 135 2 43 8 82 12 86 4 4
15 -3 24 -17 18 -28 39 -35 29 -10 -5 14 31 64 47 64 3 0 4 -18 2 -40 -6 -57
4 -85 33 -98 71 -33 132 1 142 78 4 29 9 38 16 31 20 -20 24 -11 21 40 -2 41
0 48 10 40 7 -6 16 -30 19 -54 10 -65 35 -143 56 -169 l19 -23 -5 56 c-5 56
-5 58 47 125 66 86 64 84 55 54 -4 -14 -20 -44 -36 -67 -16 -24 -24 -43 -20
-43 14 0 82 87 136 173 27 42 50 77 52 77 2 0 24 -10 49 -22 l47 -21 -6 -74
c-6 -82 5 -89 23 -13 7 27 16 50 20 50 5 0 29 -24 54 -52 59 -68 59 -53 0 22
-43 55 -46 61 -39 102 4 24 10 47 13 52 7 12 29 -19 57 -79z m-535 4 c0 -44
-4 -68 -10 -64 -11 7 -13 57 -4 104 10 49 14 37 14 -40z m1252 -11 c36 -33 41
-55 22 -107 -9 -25 -19 -53 -21 -61 -3 -8 -11 8 -17 35 -7 28 -8 52 -4 55 4 3
3 12 -2 20 -9 14 -14 80 -7 80 2 0 15 -10 29 -22z m-54 -19 c-3 -8 -7 -3 -11
10 -4 17 -3 21 5 13 5 -5 8 -16 6 -23z m12 -92 c0 -12 -8 -31 -17 -42 -15 -19
-15 -19 -8 5 4 14 8 35 9 47 1 27 16 19 16 -10z m-1340 -7 c21 -30 21 -30 1
-30 -11 0 -23 -4 -26 -10 -11 -17 -44 -11 -55 10 -15 28 4 60 35 60 15 0 31
-11 45 -30z m-5 -130 c19 -8 19 -9 -2 -9 -12 -1 -25 4 -28 9 -7 12 2 12 30 0z
m-557 -166 c24 -30 40 -59 37 -64 -13 -21 -45 -8 -79 32 l-36 42 0 -38 c0 -34
-2 -37 -15 -26 -11 9 -14 22 -9 44 17 83 43 85 102 10z m1152 40 c0 -8 -4 -12
-10 -9 -5 3 -10 10 -10 16 0 5 5 9 10 9 6 0 10 -7 10 -16z m-52 -9 c2 -1 -4
-5 -12 -8 -8 -3 -22 1 -33 9 -17 13 -16 14 12 8 17 -4 31 -8 33 -9z m-1181
-139 c31 -55 32 -59 16 -72 -25 -19 -29 -18 -53 17 -12 16 -24 28 -27 25 -3
-2 5 -18 18 -35 21 -28 21 -33 8 -58 -8 -16 -18 -31 -23 -34 -12 -9 -64 9 -98
33 -22 15 -27 16 -22 4 3 -9 21 -25 39 -36 52 -32 155 -208 155 -265 0 -71
-42 -127 -73 -96 -6 6 -19 11 -28 11 -9 0 -22 6 -28 14 -13 15 -13 17 -36 151
-9 49 -24 119 -34 155 -30 105 -33 121 -20 136 18 21 32 17 78 -22 23 -20 44
-34 47 -32 2 3 -15 22 -40 42 -51 42 -53 73 -4 83 16 3 33 14 39 25 19 35 51
18 86 -46z m183 -68 c0 -2 -7 -25 -15 -52 -8 -27 -15 -77 -15 -112 0 -81 -9
-103 -68 -162 l-49 -49 -11 48 c-10 40 -8 57 7 104 10 31 28 66 40 79 12 12
30 50 42 84 18 53 24 62 45 62 13 0 24 -1 24 -2z m1160 -68 c0 -5 -5 -10 -11
-10 -5 0 -7 5 -4 10 3 6 8 10 11 10 2 0 4 -4 4 -10z m-860 -84 c0 -3 -4 -8
-10 -11 -5 -3 -10 -1 -10 4 0 6 5 11 10 11 6 0 10 -2 10 -4z m990 -101 c7 -9
8 -15 2 -15 -5 0 -12 7 -16 15 -3 8 -4 15 -2 15 2 0 9 -7 16 -15z m-124 -66
c32 -26 44 -76 44 -181 1 -70 5 -111 15 -128 21 -37 18 -61 -11 -91 l-27 -28
-47 25 c-70 37 -105 35 -262 -15 -18 -6 -29 -5 -32 3 -2 6 -5 3 -5 -8 -1 -13
-6 -17 -21 -13 -22 6 -29 -18 -7 -27 6 -3 -4 -4 -23 -3 -33 2 -35 4 -34 39 1
24 28 90 81 196 122 242 135 255 245 249 37 -3 75 -11 84 -18z m-702 -148 l30
-12 -50 -23 c-28 -13 -68 -34 -90 -48 -21 -14 -57 -28 -79 -32 -21 -4 -51 -14
-66 -21 -24 -13 -27 -12 -37 9 -12 27 -7 36 19 36 9 0 43 19 75 43 33 24 68
49 79 55 22 14 74 10 119 -7z m-799 -41 c-3 -5 -10 -10 -16 -10 -5 0 -9 5 -9
10 0 6 7 10 16 10 8 0 12 -4 9 -10z m405 -35 c7 -8 22 -15 33 -15 22 0 57 -27
57 -44 0 -6 -10 -16 -22 -21 -21 -9 -81 -80 -90 -105 -2 -6 -11 -8 -21 -4 -20
7 -19 15 7 79 l17 40 -36 -37 c-27 -30 -35 -34 -35 -19 0 46 48 141 70 141 4
0 13 -7 20 -15z m-86 -47 c-3 -13 -10 -30 -15 -38 -7 -13 -8 -13 -9 0 0 27 12
60 22 60 5 0 6 -10 2 -22z m586 17 c0 -14 -85 -95 -99 -95 -9 1 -31 9 -50 19
l-34 18 31 21 c38 28 152 55 152 37z m165 -3 c-31 -26 -86 -62 -122 -81 -24
-12 -43 -23 -43 -25 0 -3 -3 -13 -7 -23 -5 -14 1 -12 23 9 24 22 128 88 138
88 2 0 -3 -26 -10 -57 -8 -32 -14 -84 -14 -115 l0 -56 -35 9 c-19 6 -39 8 -44
5 -4 -3 -17 1 -27 9 -39 30 -138 13 -173 -29 -18 -21 -28 -20 -36 4 -7 22 -30
27 -41 8 -5 -8 -2 -9 9 -5 13 5 17 1 17 -19 0 -29 -16 -64 -30 -64 -6 0 -10 6
-10 14 0 10 -7 12 -22 8 l-23 -6 19 30 19 29 -26 -23 c-17 -16 -27 -20 -32
-12 -4 6 -23 10 -43 8 -21 -2 -37 2 -39 9 -4 12 157 197 186 212 21 12 96 -31
96 -56 0 -13 10 -18 37 -19 36 -3 38 -1 65 54 20 39 36 59 53 64 14 4 45 14
70 21 25 8 47 15 50 16 2 0 0 -3 -5 -7z m-180 -62 c-10 -11 -23 -20 -28 -20
-6 0 -2 9 8 20 10 11 23 20 28 20 6 0 2 -9 -8 -20z m-606 -44 l35 -26 -76 0
c-61 0 -80 -4 -102 -21 -29 -23 -30 -22 -16 15 5 14 15 26 22 26 7 0 26 11 43
24 32 26 36 25 94 -18z m61 -54 c65 -36 43 -49 -90 -53 -65 -3 -65 -3 -68 26
-2 15 2 32 10 36 24 16 112 10 148 -9z m-233 -57 c-4 -8 -11 -15 -17 -15 -7 0
-7 6 0 21 13 23 26 19 17 -6z m303 -13 c0 -4 -20 -27 -44 -51 l-43 -42 -23 38
c-12 21 -22 40 -22 43 2 15 132 27 132 12z m176 -81 c-7 -11 -56 -21 -56 -10
0 9 19 17 43 18 10 1 16 -3 13 -8z m49 -31 c4 -6 1 -17 -5 -25 -10 -13 -16
-12 -41 1 -16 8 -27 19 -24 24 8 13 62 13 70 0z m-265 -66 c-18 -21 -24 -10
-8 15 7 12 14 17 16 11 2 -6 -2 -17 -8 -26z m95 26 c4 -6 -6 -7 -27 -3 -44 8
-48 13 -10 13 17 0 34 -4 37 -10z"/>
<path d="M2304 2182 c4 -3 14 -7 22 -8 9 -1 13 0 10 4 -4 3 -14 7 -22 8 -9 1
-13 0 -10 -4z"/>
<path d="M1504 1919 c-19 -22 -19 -22 6 -13 14 5 51 9 83 9 62 0 75 9 26 19
-59 12 -95 7 -115 -15z"/>
<path d="M1816 1897 c3 -10 9 -15 12 -12 3 3 0 11 -7 18 -10 9 -11 8 -5 -6z"/>
<path d="M1180 1604 c0 -8 5 -12 10 -9 6 3 10 10 10 16 0 5 -4 9 -10 9 -5 0
-10 -7 -10 -16z"/>
<path d="M1140 1444 c0 -27 32 -85 54 -99 37 -24 117 -28 156 -8 48 25 49 45
3 70 -84 47 -213 69 -213 37z"/>
<path d="M2628 769 c-19 -10 -25 -54 -9 -63 5 -3 20 3 34 14 14 11 34 20 44
20 15 0 9 -11 -28 -49 -47 -49 -89 -117 -89 -144 0 -11 15 -13 73 -10 135 7
137 8 137 53 l0 39 -51 3 -50 3 50 57 c71 79 69 88 -21 88 -40 0 -81 -5 -90
-11z"/>
<path d="M2503 758 c-4 -7 -8 -22 -8 -32 0 -11 -6 -21 -14 -24 -10 -3 -12 3
-6 27 6 30 6 31 -30 31 -20 0 -45 -5 -56 -10 -19 -11 -27 -40 -10 -40 5 0 19
-13 30 -28 17 -25 19 -34 10 -68 -6 -21 -18 -47 -27 -57 -16 -17 -15 -20 1
-32 11 -8 33 -11 60 -8 73 10 77 14 70 91 l-6 68 42 36 c22 19 41 40 41 46 0
16 -87 15 -97 0z"/>
<path d="M2270 737 c-29 -11 -35 -17 -32 -39 1 -15 -3 -30 -9 -34 -16 -10 -30
18 -17 34 16 19 -8 32 -47 25 -66 -13 -85 -41 -41 -61 39 -18 41 -47 7 -100
-16 -26 -39 -53 -51 -60 -22 -14 -27 -37 -7 -44 6 -3 32 0 57 6 32 8 46 16 48
31 7 48 13 65 23 65 7 0 9 -11 6 -29 -9 -41 8 -51 67 -40 80 15 98 44 49 76
-31 20 -62 53 -63 67 0 5 21 29 46 52 62 58 47 79 -36 51z"/>
<path d="M2560 669 c-6 -11 -10 -28 -8 -37 3 -13 8 -9 21 15 20 37 21 43 7 43
-5 0 -14 -9 -20 -21z"/>
<path d="M1813 660 c-61 -37 -71 -96 -23 -130 47 -34 35 -64 -22 -53 -29 6
-41 -15 -32 -53 16 -65 129 -57 183 12 50 64 33 135 -39 154 -47 13 -57 25
-31 39 14 8 22 7 32 -5 22 -26 54 -13 57 24 l3 32 -48 0 c-30 0 -60 -7 -80
-20z"/>
<path d="M2327 660 c-31 -25 -26 -44 14 -64 29 -14 30 -14 39 10 13 33 12 48
-2 62 -16 16 -21 15 -51 -8z"/>
<path d="M1694 638 c-44 -11 -58 -31 -44 -58 6 -11 10 -42 8 -68 -3 -40 -7
-49 -31 -60 -22 -11 -31 -11 -43 -2 -19 16 -18 73 2 112 19 37 6 51 -41 42
-59 -12 -90 -44 -66 -70 5 -5 11 -49 13 -97 3 -80 5 -91 28 -109 43 -35 131
-5 175 59 21 31 25 49 25 108 0 43 6 81 15 99 8 15 15 32 15 36 0 14 -24 17
-56 8z"/>
<path d="M1293 538 c-27 -13 -37 -36 -22 -54 11 -14 8 -125 -7 -205 -3 -22 -2
-39 5 -43 15 -10 167 33 182 50 6 8 14 34 17 59 6 56 -15 69 -60 35 -25 -18
-32 -20 -39 -9 -15 23 -10 113 7 137 8 12 12 27 9 32 -8 13 -64 12 -92 -2z"/>
<path d="M1429 533 c17 -35 14 -52 -9 -46 -15 4 -20 0 -20 -16 0 -19 3 -20 20
-11 11 6 20 7 20 1 0 -5 -7 -12 -16 -15 -9 -4 -14 -9 -10 -13 10 -11 46 29 46
51 0 12 -10 32 -21 46 -17 21 -19 22 -10 3z"/>
<path d="M1975 496 c-33 -50 1 -84 51 -51 35 23 30 69 -8 73 -20 2 -31 -3 -43
-22z"/>
<path d="M1106 492 c-57 -20 -81 -47 -53 -63 25 -14 22 -86 -9 -213 -9 -36 6
-45 56 -36 46 8 90 35 90 54 0 8 -7 27 -15 42 -24 47 -19 68 20 83 19 7 40 22
46 33 15 27 14 85 -1 103 -16 20 -73 18 -134 -3z m71 -52 c4 -21 -13 -44 -26
-36 -6 4 -11 18 -11 32 0 19 5 25 17 22 10 -2 19 -10 20 -18z"/>
<path d="M2346 473 c-14 -7 -58 -17 -98 -22 -93 -13 -176 -30 -206 -44 -13 -6
-42 -11 -65 -10 -27 2 -50 -4 -65 -15 -20 -16 -22 -21 -12 -46 6 -16 9 -30 7
-32 -1 -2 -33 -6 -71 -10 l-68 -7 6 29 c6 26 3 31 -21 40 -25 8 -31 6 -57 -24
-18 -20 -45 -37 -71 -44 -26 -7 -41 -16 -38 -23 3 -9 14 -9 44 1 34 12 44 12
69 -1 45 -23 57 -47 84 -165 l5 -26 -122 1 c-118 0 -124 1 -169 30 -43 27 -47
33 -42 60 4 16 15 49 25 73 11 24 19 49 19 55 0 22 -39 -60 -55 -117 -15 -52
-15 -59 -1 -81 10 -15 12 -25 6 -25 -15 0 -154 22 -158 25 -2 2 6 26 17 54
l19 51 -32 0 c-34 0 -60 15 -69 40 -3 8 -6 3 -6 -12 -1 -36 -40 -64 -109 -78
-87 -18 -110 -30 -127 -62 -13 -26 -13 -29 0 -24 8 3 15 1 15 -4 0 -14 44 -12
59 3 11 10 13 9 8 -5 -4 -12 3 -18 31 -24 20 -4 44 -9 52 -10 131 -28 357 -28
500 0 92 17 210 55 210 66 0 5 -5 31 -12 59 -8 38 -9 54 -1 62 8 8 20 -4 43
-45 27 -48 36 -56 54 -50 46 13 211 107 281 159 78 57 215 182 215 195 0 14
-69 16 -94 3z m-1175 -416 c-1 -12 -15 -9 -19 4 -3 6 1 10 8 8 6 -3 11 -8 11
-12z"/>
<path d="M907 449 c-17 -7 -29 -20 -33 -37 -3 -15 -9 -40 -13 -57 l-8 -30 -22
48 c-19 41 -26 47 -52 47 -32 0 -69 -16 -81 -34 -4 -6 -1 -21 7 -33 18 -26 20
-130 4 -186 -10 -36 -12 -38 -28 -23 -33 30 -54 179 -30 203 7 7 9 19 5 29 -5
13 -15 16 -52 11 -25 -2 -53 -12 -62 -21 -15 -15 -15 -19 2 -47 16 -26 18 -45
13 -108 -10 -122 -23 -139 -53 -68 -12 28 -18 70 -19 126 -1 73 -4 85 -21 91
-24 9 -85 -5 -95 -21 -8 -14 -1 -39 12 -39 5 0 9 -9 9 -20 0 -15 -7 -20 -28
-20 -39 0 -45 9 -26 37 12 19 13 27 3 39 -16 20 -72 18 -100 -4 -21 -18 -22
-20 -6 -43 13 -18 17 -46 17 -116 0 -50 -5 -95 -10 -98 -15 -9 -12 -31 6 -49
18 -19 71 -21 111 -5 15 6 54 12 85 13 39 1 63 8 77 20 14 13 24 15 36 8 20
-10 101 2 121 19 8 6 14 19 14 28 1 14 2 14 11 -1 12 -22 57 -23 104 -3 41 16
53 40 37 66 -7 10 -12 31 -12 46 1 24 2 25 11 11 15 -26 27 -22 44 15 15 31
15 31 10 -36 -3 -51 -1 -69 9 -73 18 -7 86 12 111 30 19 14 19 16 4 43 -23 39
-41 133 -37 196 3 49 2 52 -22 54 -14 1 -37 -3 -53 -8z m-513 -302 c5 -32 6
-60 3 -64 -15 -14 -36 34 -37 80 0 68 22 57 34 -16z"/>
<path d="M1014 395 c-4 -8 -2 -36 4 -63 l10 -47 1 63 c1 61 -4 77 -15 47z"/>
<path d="M18 334 c-22 -7 -23 -32 -3 -70 18 -34 20 -165 4 -196 -8 -15 -8 -27
0 -45 10 -22 16 -24 72 -21 83 4 91 17 54 92 -29 60 -26 75 17 76 50 0 66 88
24 136 -20 24 -31 28 -87 30 -35 2 -72 0 -81 -2z m110 -82 c2 -23 -1 -32 -11
-32 -14 0 -29 54 -18 65 12 12 26 -4 29 -33z"/>
<path d="M1215 327 c-14 -11 -16 -18 -7 -33 10 -18 11 -17 22 10 13 35 9 40
-15 23z"/>
<path d="M673 314 c-3 -8 -1 -20 6 -27 8 -8 11 -4 11 16 0 30 -7 35 -17 11z"/>
<path d="M953 103 c-15 -5 -18 -33 -4 -33 8 0 25 30 19 35 -2 1 -9 0 -15 -2z"/>
</g>
</svg>
